<svg xmlns="http://www.w3.org/2000/svg" version="1.1" xmlns:xlink="http://www.w3.org/1999/xlink" xmlns:svgjs="http://svgjs.dev/svgjs" width="1500" height="1500" viewBox="0 0 1500 1500"><rect width="1500" height="1500" fill="#000000"></rect><g transform="matrix(0.6666666666666666,0,0,0.6666666666666666,249.39590972970893,416.07439048622444)"><svg viewBox="0 0 396 264" data-background-color="#ffffff" preserveAspectRatio="xMidYMid meet" height="1000" width="1500" xmlns="http://www.w3.org/2000/svg" xmlns:xlink="http://www.w3.org/1999/xlink"><g id="tight-bounds" transform="matrix(1,0,0,1,0.23921974703526416,0.23454136745510823)"><svg viewBox="0 0 395.5199999999999 263.52981989257387" height="263.52981989257387" width="395.5199999999999"><g><svg viewBox="0 0 395.5199999999999 263.52981989257387" height="263.52981989257387" width="395.5199999999999"><g transform="matrix(1,0,0,1,0,135.623257400301)"><svg viewBox="0 0 395.5199999999999 127.90656249227285" height="127.90656249227285" width="395.5199999999999"><g id="textblocktransform"><svg viewBox="0 0 395.5199999999999 127.90656249227285" height="127.90656249227285" width="395.5199999999999" id="textblock"><g><svg viewBox="0 0 395.5199999999999 127.90656249227285" height="127.90656249227285" width="395.5199999999999"><g transform="matrix(1,0,0,1,0,0)"><svg width="395.5199999999999" viewBox="-2.5703172851809724 -17.28969965017968 142.6942042487392 46.14564697550047" height="127.90656249227285" data-palette-color="#000000"><path d="M-2.118 15.224l5.691-1.469-0.138-0.79-5.691 1.469zM3.636 13.724l4.58-1.867-0.269-0.719-4.576 1.858zM12.777-12.658l-3.611-4.498-0.595 0.523 3.611 4.499c0.052 0.053 0.116 0.093 0.191 0.119 0.082 0.029 0.141 0.031 0.177 0.009v0l5.587-1.294-0.151-0.783-5.577 1.297c-0.074 0.01-0.016 0.047 0.172 0.113 0.183 0.064 0.248 0.069 0.196 0.015zM14.521 17.04l1.685 4.464 0.722-0.278-1.688-4.454c-0.01-0.074-0.052-0.004-0.127 0.21-0.077 0.22-0.088 0.305-0.035 0.253v0l5.401-3.191-0.393-0.666-5.404 3.2c-0.085 0.041-0.143 0.106-0.173 0.193-0.033 0.094-0.029 0.184 0.012 0.269zM3.877 13.49l8.974-25.751-0.746-0.26-8.974 25.751c-0.044 0.126-0.036 0.235 0.024 0.326 0.056 0.083 0.131 0.141 0.225 0.174v0l11.366 3.548 0.26-0.746-11.366-3.548c-0.126-0.044-0.127 0.062-0.004 0.316 0.117 0.252 0.197 0.316 0.241 0.19zM-2.314 15.208v0l18.754 6.536c0.094 0.033 0.181 0.028 0.26-0.015 0.085-0.041 0.16-0.103 0.224-0.187v0l3.715-7.654c0.086-0.146 0.076-0.288-0.032-0.424-0.106-0.143-0.259-0.179-0.46-0.107v0c-0.669 0.219-1.458 0.325-2.367 0.318-0.905 0.002-2.106-0.197-3.604-0.599-1.498-0.402-3.488-1.053-5.969-1.953v0l0.246 0.509c0.339-1.174 0.779-2.591 1.323-4.251 0.543-1.66 1.215-3.639 2.016-5.937v0c0.965-2.77 1.779-5.035 2.442-6.795 0.667-1.751 1.228-3.159 1.683-4.222 0.461-1.061 0.886-1.873 1.272-2.436 0.387-0.564 0.763-1.026 1.129-1.386v0c0.116-0.129 0.162-0.261 0.139-0.397-0.019-0.127-0.108-0.218-0.266-0.272v0l-9.188-3.202c-0.126-0.044-0.248-0.027-0.367 0.052-0.115 0.087-0.167 0.217-0.157 0.39v0c0.1 0.522 0.118 1.121 0.051 1.797-0.06 0.678-0.242 1.575-0.545 2.69-0.298 1.118-0.733 2.569-1.306 4.353-0.575 1.791-1.345 4.071-2.309 6.841v0c-1.018 2.921-1.877 5.315-2.577 7.182-0.7 1.867-1.292 3.362-1.775 4.486-0.477 1.126-0.905 1.979-1.284 2.56-0.373 0.583-0.766 1.064-1.181 1.442v0c-0.107 0.104-0.144 0.232-0.112 0.384 0.038 0.154 0.12 0.254 0.245 0.297zM16.703 20.989l-18.753-6.536 0.123 0.678c0.414-0.378 0.814-0.878 1.2-1.498 0.39-0.612 0.841-1.482 1.354-2.61 0.519-1.125 1.138-2.646 1.856-4.564 0.722-1.909 1.602-4.355 2.642-7.339v0c0.987-2.833 1.773-5.168 2.356-7.004 0.59-1.835 1.02-3.323 1.291-4.464 0.279-1.145 0.451-2.063 0.515-2.754 0.07-0.688 0.061-1.31-0.028-1.863v0l-0.516 0.445 9.188 3.202-0.136-0.672c-0.376 0.391-0.76 0.875-1.152 1.451-0.398 0.574-0.843 1.397-1.336 2.468-0.491 1.064-1.079 2.497-1.763 4.299-0.678 1.804-1.511 4.122-2.498 6.956v0c-0.801 2.298-1.473 4.277-2.016 5.937-0.543 1.66-0.984 3.078-1.323 4.251v0c-0.044 0.126-0.038 0.23 0.018 0.314 0.054 0.089 0.128 0.15 0.222 0.183v0c2.602 0.942 4.682 1.607 6.241 1.995 1.553 0.386 2.803 0.578 3.749 0.576 0.94-0.004 1.766-0.126 2.478-0.365v0l-0.489-0.541-3.715 7.653zM46.056-2.91v0l0.254-0.755c-1.144-0.332-2.476-0.674-3.997-1.026-1.526-0.361-3.037-0.708-4.533-1.042-1.49-0.333-2.804-0.597-3.942-0.791v0c-0.131-0.026-0.237-0.003-0.319 0.068-0.081 0.065-0.132 0.147-0.151 0.245v0l-5.406 26.933c-0.02 0.098-0.005 0.193 0.045 0.284 0.05 0.092 0.14 0.15 0.271 0.177v0c1.157 0.266 2.479 0.542 3.965 0.826 1.488 0.278 2.99 0.535 4.506 0.772 1.516 0.236 2.862 0.425 4.037 0.566v0l0.068-0.792c-1.149-0.135-2.475-0.32-3.979-0.554-1.497-0.232-2.989-0.488-4.477-0.766-1.486-0.285-2.808-0.56-3.965-0.826v0c-0.098-0.02-0.077 0.076 0.065 0.288 0.14 0.218 0.219 0.279 0.239 0.18v0l5.405-26.932c0.02-0.098-0.076-0.077-0.288 0.064-0.212 0.141-0.269 0.221-0.171 0.241v0c1.137 0.194 2.451 0.458 3.941 0.791 1.497 0.334 2.998 0.68 4.504 1.037 1.514 0.351 2.823 0.689 3.928 1.012zM31.078 7.231l11.187 2.245 0.155-0.774-11.187-2.245zM28.533 21.132l4.249-2.319-0.364-0.675-4.25 2.319c0 0 0.008-0.005 0.024-0.015 0.024-0.016 0.035-0.024 0.035-0.024v0l-5.396 2.038 0.244 0.763 5.399-2.048c0.033 0.007 0.05 0.003 0.053-0.009 0.004-0.02 0.006-0.029 0.006-0.03zM34.015-6.438l-4.192-3.962-0.519 0.599 4.193 3.963c0 0-0.008-0.009-0.026-0.026-0.009-0.022-0.014-0.033-0.013-0.033v0l3.023 3.789 0.599-0.492-3.026-3.779c0 0 0.001-0.007 0.004-0.02 0.004-0.02-0.01-0.033-0.043-0.039zM46.429-2.988l3.671-2.741-0.482-0.597-3.671 2.742c-0.039 0.026-0.08 0.093-0.122 0.2-0.035 0.108-0.043 0.199-0.024 0.27v0l2.154 4.818 0.775-0.354-2.156-4.808c-0.052-0.078-0.107-0.008-0.165 0.211-0.066 0.225-0.059 0.311 0.02 0.259zM41.061 23.249l4.913-3.9-0.48-0.606-4.913 3.9c-0.078 0.052-0.128 0.127-0.147 0.225-0.02 0.098-0.003 0.186 0.049 0.265v0l2.329 3.945 0.677-0.374-2.33-3.945c-0.054-0.072-0.093 0.005-0.117 0.231-0.033 0.231-0.026 0.318 0.019 0.259zM42.586 9.398l3.799-3.378-0.482-0.597-3.807 3.367c-0.078 0.052-0.128 0.127-0.147 0.225-0.02 0.098-0.003 0.186 0.049 0.265v0l2.223 4.526 0.677-0.374-2.213-4.524c-0.02-0.072-0.052 0.006-0.099 0.235-0.045 0.222-0.045 0.307 0 0.255zM31.333 7.181l4.024-2.212-0.365-0.675-4.024 2.212c-0.111 0.046-0.18 0.134-0.206 0.264-0.026 0.131 0.004 0.235 0.09 0.314v0l2.857 3.603 0.597-0.482-2.857-3.603c-0.078-0.084-0.144 0.005-0.196 0.267-0.051 0.255-0.024 0.359 0.08 0.312zM22.879 23.231v0l20.197 4.053c0.098 0.02 0.186 0.003 0.265-0.048 0.072-0.054 0.134-0.126 0.187-0.218v0l2.584-7.845c0.065-0.157 0.036-0.299-0.088-0.426-0.124-0.127-0.281-0.141-0.471-0.043v0c-0.64 0.341-1.424 0.571-2.352 0.691-0.934 0.112-2.221 0.071-3.861-0.122-1.641-0.193-3.863-0.588-6.667-1.186v0l0.315 0.462c0.161-0.974 0.357-2.118 0.587-3.432 0.23-1.314 0.503-2.847 0.821-4.599v0l-0.471 0.314c2.556 0.513 4.497 0.937 5.824 1.271 1.327 0.334 2.318 0.632 2.972 0.892 0.647 0.266 1.173 0.575 1.578 0.929v0c0.145 0.09 0.284 0.108 0.418 0.053 0.127-0.056 0.203-0.15 0.23-0.28v0l1.584-7.893c0.033-0.163 0-0.289-0.098-0.376-0.105-0.089-0.242-0.117-0.412-0.083v0c-0.51 0.17-1.116 0.259-1.818 0.267-0.709 0.007-1.748-0.099-3.118-0.319-1.362-0.226-3.308-0.576-5.838-1.05v0l0.316 0.461c0.337-1.51 0.637-2.833 0.899-3.97 0.264-1.144 0.499-2.147 0.706-3.01v0l-0.471 0.313c2.758 0.486 4.875 0.951 6.349 1.397 1.474 0.446 2.568 0.859 3.28 1.24 0.714 0.374 1.299 0.76 1.757 1.158v0c0.15 0.098 0.29 0.116 0.417 0.053 0.127-0.056 0.203-0.15 0.23-0.28v0l1.517-7.559c0.018-0.092-0.003-0.188-0.064-0.289-0.063-0.094-0.143-0.151-0.242-0.171v0l-20.295-4.073c-0.131-0.026-0.25 0.008-0.357 0.102-0.102 0.102-0.136 0.238-0.102 0.408v0c0.171 0.503 0.27 1.095 0.297 1.773 0.034 0.68-0.024 1.593-0.173 2.74-0.142 1.148-0.374 2.645-0.697 4.49-0.324 1.852-0.775 4.217-1.352 7.093v0c-0.609 3.033-1.132 5.522-1.57 7.467-0.438 1.945-0.82 3.507-1.145 4.686-0.319 1.18-0.626 2.084-0.921 2.712-0.289 0.629-0.613 1.159-0.972 1.59v0c-0.092 0.118-0.111 0.25-0.059 0.396 0.059 0.148 0.153 0.235 0.284 0.261zM43.234 26.5l-20.197-4.053 0.215 0.655c0.359-0.431 0.686-0.981 0.984-1.649 0.302-0.66 0.631-1.584 0.984-2.77 0.36-1.186 0.765-2.777 1.213-4.775 0.454-1.99 0.991-4.534 1.613-7.632v0c0.59-2.941 1.049-5.362 1.376-7.261 0.333-1.898 0.556-3.431 0.668-4.599 0.12-1.173 0.164-2.106 0.133-2.798-0.024-0.692-0.119-1.306-0.283-1.842v0l-0.449 0.512 20.295 4.073-0.313-0.471-1.518 7.559 0.646-0.217c-0.49-0.404-1.106-0.807-1.849-1.207-0.742-0.401-1.872-0.838-3.388-1.313-1.518-0.468-3.688-0.954-6.51-1.459v0c-0.098-0.02-0.193-0.005-0.284 0.045-0.092 0.05-0.15 0.14-0.177 0.27v0c-0.207 0.863-0.443 1.866-0.706 3.01-0.262 1.137-0.562 2.461-0.899 3.971v0c-0.02 0.098 0.001 0.197 0.063 0.298 0.069 0.095 0.15 0.152 0.241 0.171v0c2.007 0.403 3.636 0.706 4.886 0.909 1.252 0.197 2.268 0.322 3.046 0.377 0.778 0.054 1.408 0.065 1.89 0.032 0.477-0.04 0.928-0.12 1.354-0.238v0l-0.512-0.449-1.584 7.892 0.647-0.227c-0.348-0.267-0.734-0.511-1.158-0.732-0.431-0.223-1.018-0.449-1.761-0.68-0.742-0.231-1.736-0.498-2.98-0.802-1.252-0.299-2.865-0.646-4.84-1.043v0c-0.092-0.018-0.188 0.003-0.288 0.065-0.094 0.063-0.151 0.143-0.171 0.241v0c-0.318 1.752-0.591 3.285-0.821 4.598-0.23 1.314-0.425 2.458-0.586 3.432v0c-0.026 0.131-0.007 0.237 0.058 0.318 0.065 0.081 0.147 0.132 0.245 0.151v0c2.935 0.623 5.247 1.029 6.936 1.219 1.697 0.184 3.029 0.207 3.995 0.067 0.966-0.139 1.789-0.392 2.468-0.759v0l-0.559-0.469-2.584 7.844zM56.114-2.809v0l0.072 0.793c1.584-0.077 3.332-0.099 5.246-0.064 1.907 0.034 3.699 0.081 5.378 0.141v0 0 0 0l5.387 0.191c0.16 0.006 0.165-0.124 0.014-0.39-0.157-0.272-0.271-0.343-0.343-0.212v0l-15.781 26.827c-0.071 0.131-0.069 0.264 0.006 0.401 0.082 0.13 0.186 0.197 0.313 0.201v0l4.937 0.175v0 0 0c1.679 0.06 3.452 0.099 5.319 0.119 1.861 0.013 3.633-0.015 5.316-0.082v0l-0.072-0.793c-1.617 0.069-3.356 0.098-5.216 0.085-1.867-0.02-3.64-0.059-5.319-0.118v0 0 0 0l-4.937-0.175c-0.127-0.004-0.121 0.129 0.016 0.4 0.137 0.265 0.242 0.335 0.313 0.212v0l15.781-26.838c0.072-0.158 0.077-0.297 0.014-0.42-0.063-0.116-0.174-0.176-0.333-0.182v0l-5.387-0.191v0 0 0c-1.679-0.06-3.472-0.106-5.378-0.14-1.913-0.035-3.695-0.014-5.346 0.06zM55.809-2.669l-3.21 4.178 0.672 0.525 3.22-4.189c0.062-0.065 0.089-0.154 0.08-0.267-0.016-0.114-0.053-0.189-0.112-0.224v0l-2.948-3.517-0.607 0.469 2.938 3.516c0.064 0.069 0.094-0.013 0.088-0.247-0.012-0.227-0.052-0.309-0.121-0.244zM72.223 25.15l4.226-4.593-0.582-0.521-4.215 4.593c-0.069 0.064-0.105 0.146-0.109 0.246-0.004 0.1 0.027 0.184 0.091 0.254v0l2.935 3.566 0.618-0.478-2.946-3.567c-0.058-0.062-0.091 0.02-0.099 0.247-0.008 0.233 0.019 0.318 0.081 0.253zM56.242 24.333l-5.746 2.908 0.375 0.714 5.737-2.919v0 0 0l5.785-2.857-0.366-0.703-5.785 2.857v0 0zM72.388-1.791l5.747-2.908-0.375-0.704-5.737 2.908v0 0 0l-5.787 2.907 0.365 0.713 5.787-2.916v0 0zM77.961-5.446v0l-24.734-0.877c-0.1-0.004-0.195 0.033-0.284 0.11-0.083 0.084-0.126 0.172-0.13 0.265v0l-0.273 7.705c-0.005 0.133 0.058 0.242 0.189 0.327 0.13 0.091 0.26 0.106 0.388 0.044v0c0.408-0.219 0.895-0.415 1.462-0.588 0.567-0.18 1.312-0.32 2.236-0.421 0.924-0.101 2.164-0.157 3.719-0.169 1.548-0.005 3.503 0.064 5.866 0.208v0l-0.319-0.601-15.731 26.829c-0.071 0.131-0.069 0.264 0.006 0.4 0.075 0.136 0.179 0.206 0.313 0.212v0l24.195 0.858c0.1 0.004 0.184-0.027 0.253-0.091 0.069-0.064 0.122-0.146 0.159-0.245v0l1.27-8.16c0.039-0.165-0.013-0.301-0.156-0.406-0.143-0.105-0.3-0.094-0.471 0.033v0c-0.609 0.439-1.389 0.798-2.34 1.078-0.944 0.28-2.291 0.456-4.041 0.527-1.75 0.071-4.187 0.018-7.309-0.159v0l0.319 0.602 15.732-26.879c0.072-0.158 0.077-0.297 0.015-0.42-0.056-0.115-0.167-0.176-0.334-0.182zM53.199-5.534l24.734 0.877-0.328-0.602-15.733 26.88c-0.071 0.124-0.069 0.254 0.006 0.39 0.082 0.136 0.189 0.207 0.323 0.212v0c2.431 0.12 4.447 0.174 6.048 0.164 1.595-0.01 2.908-0.087 3.941-0.23 1.026-0.144 1.857-0.344 2.492-0.602 0.63-0.258 1.201-0.574 1.715-0.95v0l-0.637-0.373-1.27 8.16 0.402-0.336-24.195-0.858 0.329 0.612 15.731-26.829c0.071-0.131 0.076-0.264 0.014-0.4-0.062-0.136-0.176-0.206-0.343-0.212v0c-2.43-0.146-4.428-0.217-5.996-0.213-1.568 0.011-2.838 0.083-3.81 0.215-0.979 0.132-1.758 0.285-2.338 0.458-0.587 0.179-1.097 0.378-1.532 0.596v0l0.578 0.36 0.273-7.705zM97.304-3.586v0l0.01-0.796c-1.19 0.034-2.563 0.116-4.119 0.246-1.563 0.124-3.108 0.255-4.635 0.395-1.521 0.139-2.852 0.29-3.994 0.453v0c-0.132 0.015-0.227 0.069-0.284 0.163-0.057 0.087-0.08 0.18-0.068 0.279v0l3.097 27.295c0.011 0.099 0.055 0.185 0.129 0.257 0.075 0.072 0.179 0.1 0.312 0.086v0c1.183-0.101 2.525-0.243 4.028-0.427 1.501-0.19 3.01-0.405 4.526-0.644 1.516-0.239 2.855-0.472 4.017-0.698v0l-0.179-0.775c-1.135 0.223-2.455 0.453-3.957 0.691-1.496 0.237-2.995 0.451-4.497 0.641-1.502 0.184-2.845 0.326-4.027 0.427v0c-0.099 0.011-0.049 0.096 0.15 0.255 0.2 0.165 0.294 0.198 0.282 0.098v0l-3.096-27.295c-0.011-0.099-0.096-0.049-0.255 0.15-0.159 0.199-0.188 0.293-0.089 0.282v0c1.142-0.163 2.474-0.314 3.994-0.453 1.527-0.14 3.062-0.27 4.606-0.392 1.549-0.129 2.898-0.208 4.049-0.238zM86.148 10.652l11.337-1.286-0.089-0.785-11.337 1.287zM87.979 24.665l3.336-3.508-0.554-0.531-3.335 3.508c0 0 0.006-0.007 0.017-0.022 0.018-0.022 0.026-0.033 0.027-0.033v0l-4.514 3.592 0.466 0.651 4.513-3.601c0.033-0.004 0.049-0.012 0.048-0.026-0.002-0.02-0.003-0.03-0.004-0.03zM84.76-3.26l-5.203-2.489-0.31 0.73 5.204 2.489c0 0-0.011-0.005-0.032-0.017-0.015-0.018-0.023-0.028-0.024-0.027v0l4.038 2.682 0.42-0.652-4.037-2.672c0 0-0.001-0.007-0.003-0.02-0.002-0.02-0.02-0.028-0.053-0.024zM97.634-3.775l2.656-3.733-0.641-0.42-2.656 3.733c-0.029 0.037-0.048 0.113-0.055 0.228 0 0.114 0.02 0.202 0.06 0.265v0l3.526 3.927 0.629-0.574-3.524-3.918c-0.074-0.059-0.104 0.025-0.092 0.252 0.006 0.234 0.039 0.314 0.097 0.24zM100.554 22.846l3.484-5.216-0.642-0.43-3.484 5.216c-0.059 0.074-0.082 0.16-0.072 0.259 0.011 0.099 0.054 0.178 0.128 0.238v0l3.425 3.043 0.53-0.564-3.425-3.043c-0.073-0.052-0.087 0.033-0.042 0.256 0.04 0.23 0.072 0.311 0.098 0.241zM97.767 9.193l2.583-4.379-0.641-0.42-2.594 4.37c-0.059 0.074-0.082 0.16-0.071 0.26 0.011 0.099 0.054 0.178 0.127 0.237v0l3.501 3.628 0.53-0.563-3.491-3.63c-0.041-0.062-0.048 0.022-0.022 0.254 0.026 0.225 0.052 0.306 0.078 0.243zM86.375 10.526l3.154-3.337-0.554-0.531-3.154 3.337c-0.092 0.078-0.13 0.183-0.115 0.315 0.015 0.132 0.076 0.223 0.182 0.271v0l3.822 2.556 0.421-0.642-3.823-2.555c-0.1-0.056-0.135 0.049-0.105 0.314 0.029 0.258 0.087 0.349 0.172 0.272zM83.239 28.393v0l20.469-2.322c0.099-0.011 0.178-0.054 0.237-0.128 0.052-0.073 0.089-0.161 0.111-0.264v0l0.059-8.259c0.014-0.169-0.057-0.295-0.214-0.378-0.157-0.083-0.311-0.049-0.461 0.102v0c-0.505 0.52-1.18 0.979-2.028 1.378-0.855 0.392-2.092 0.747-3.713 1.065-1.621 0.318-3.858 0.622-6.71 0.912v0l0.441 0.343c-0.144-0.977-0.308-2.125-0.492-3.447-0.183-1.321-0.392-2.864-0.625-4.629v0l-0.353 0.443c2.59-0.294 4.568-0.485 5.933-0.573 1.365-0.088 2.4-0.108 3.103-0.06 0.697 0.055 1.293 0.189 1.787 0.401v0c0.166 0.042 0.304 0.016 0.414-0.077 0.104-0.092 0.148-0.205 0.133-0.337v0l-0.908-7.999c-0.019-0.166-0.088-0.275-0.208-0.328-0.127-0.053-0.266-0.037-0.417 0.047v0c-0.434 0.318-0.983 0.588-1.649 0.811-0.672 0.224-1.694 0.441-3.067 0.65-1.366 0.202-3.325 0.465-5.878 0.788v0l0.441 0.342c-0.141-1.541-0.261-2.892-0.36-4.055-0.099-1.17-0.182-2.197-0.249-3.082v0l-0.352 0.443c2.775-0.382 4.932-0.586 6.472-0.614 1.54-0.027 2.707 0.032 3.502 0.177 0.794 0.138 1.47 0.326 2.027 0.565v0c0.173 0.047 0.311 0.022 0.414-0.077 0.104-0.092 0.148-0.205 0.133-0.338v0l-0.869-7.66c-0.011-0.093-0.06-0.178-0.15-0.255-0.089-0.07-0.182-0.1-0.282-0.089v0l-20.568 2.334c-0.132 0.015-0.235 0.084-0.309 0.206-0.066 0.128-0.057 0.268 0.028 0.419v0c0.317 0.427 0.592 0.959 0.825 1.598 0.24 0.637 0.465 1.524 0.674 2.66 0.216 1.136 0.453 2.632 0.711 4.489 0.258 1.863 0.553 4.251 0.884 7.166v0c0.349 3.074 0.612 5.603 0.79 7.589 0.178 1.986 0.293 3.59 0.345 4.812 0.058 1.221 0.042 2.176-0.048 2.864-0.083 0.687-0.229 1.291-0.438 1.811v0c-0.051 0.14-0.03 0.272 0.065 0.395 0.101 0.123 0.218 0.177 0.35 0.161zM103.618 25.276l-20.469 2.323 0.406 0.557c0.209-0.52 0.353-1.144 0.431-1.87 0.086-0.721 0.116-1.701 0.09-2.939-0.02-1.239-0.122-2.878-0.307-4.917-0.177-2.033-0.444-4.619-0.8-7.759v0c-0.338-2.981-0.642-5.426-0.912-7.334-0.264-1.909-0.521-3.437-0.772-4.582-0.245-1.153-0.488-2.055-0.729-2.705-0.235-0.651-0.513-1.207-0.833-1.667v0l-0.272 0.625 20.568-2.334-0.442-0.352 0.869 7.66 0.548-0.404c-0.59-0.235-1.3-0.429-2.13-0.584-0.829-0.154-2.038-0.225-3.627-0.212-1.588 0.019-3.803 0.22-6.644 0.603v0c-0.099 0.011-0.185 0.055-0.257 0.13-0.072 0.075-0.1 0.179-0.085 0.311v0c0.067 0.885 0.15 1.912 0.249 3.082 0.098 1.163 0.218 2.515 0.359 4.055v0c0.011 0.099 0.062 0.188 0.151 0.265 0.095 0.07 0.189 0.099 0.282 0.089v0c2.034-0.231 3.677-0.441 4.93-0.63 1.253-0.196 2.257-0.387 3.015-0.574 0.757-0.187 1.36-0.369 1.809-0.547 0.442-0.184 0.847-0.398 1.216-0.641v0l-0.625-0.272 0.908 7.999 0.547-0.414c-0.413-0.148-0.855-0.262-1.327-0.343-0.479-0.08-1.107-0.116-1.885-0.108-0.777 0.008-1.805 0.057-3.083 0.148-1.284 0.099-2.926 0.262-4.926 0.489v0c-0.093 0.011-0.178 0.06-0.255 0.15-0.07 0.089-0.1 0.182-0.088 0.281v0c0.234 1.765 0.442 3.308 0.625 4.629 0.183 1.321 0.347 2.47 0.492 3.447v0c0.015 0.132 0.066 0.227 0.153 0.284 0.087 0.057 0.18 0.08 0.28 0.069v0c2.985-0.305 5.31-0.626 6.976-0.962 1.672-0.344 2.946-0.73 3.823-1.159 0.877-0.428 1.583-0.921 2.117-1.478v0l-0.675-0.275-0.059 8.259zM115.894 19.784l5.323 1.647 0.179-0.781-5.311-1.64c-0.041-0.023-0.1-0.023-0.177-0.001-0.083 0.024-0.152 0.062-0.207 0.113v0l-3.551 4.221 0.571 0.563 3.557-4.234c0.045-0.083-0.028-0.096-0.22-0.04-0.192 0.056-0.247 0.107-0.164 0.152zM127.278-12.863l-5.263-1.654-0.191 0.775 5.272 1.651c0.073 0.013 0.148 0.009 0.226-0.014 0.077-0.022 0.127-0.054 0.149-0.095v0l3.608-4.238-0.577-0.551-3.599 4.236c-0.055 0.051 0.011 0.049 0.197-0.006 0.192-0.056 0.251-0.091 0.178-0.104zM108.265-7.834l-5.135-1.181-0.181 0.771 5.125 1.184c0.073 0.013 0.155-0.004 0.246-0.051 0.092-0.041 0.15-0.082 0.172-0.123v0l2.268-3.337-0.636-0.43-2.277 3.34c-0.055 0.051 0.021 0.036 0.227-0.045 0.201-0.072 0.265-0.115 0.191-0.128zM134.849 14.523l4.773 1.547 0.179-0.782-4.77-1.537c-0.083-0.045-0.167-0.038-0.254 0.022-0.08 0.058-0.143 0.128-0.189 0.211v0l-1.681 3.417 0.706 0.315 1.679-3.426c0.045-0.083-0.046-0.073-0.273 0.027-0.228 0.101-0.284 0.17-0.17 0.206zM107.794-7.343l7.823 26.854 0.758-0.221-7.822-26.854c-0.054-0.186-0.211-0.188-0.472-0.008-0.256 0.172-0.299 0.32-0.131 0.444v0c1.12 0.771 2.382 1.681 3.785 2.73 1.403 1.05 3.128 2.443 5.176 4.18v0 0 0 0l10.435 8.792v0 0 0c1.821 1.532 3.296 2.734 4.425 3.606 1.129 0.872 2.114 1.631 2.954 2.275v0c0.133 0.1 0.279 0.099 0.437-0.003 0.16-0.095 0.212-0.239 0.156-0.43v0l-7.75-26.604-0.759 0.22 7.75 26.605c0.056 0.192 0.209 0.193 0.459 0.001 0.254-0.199 0.3-0.341 0.137-0.425v0c-0.842-0.65-1.812-1.416-2.909-2.298-1.097-0.882-2.546-2.053-4.347-3.515v0 0 0 0l-10.425-8.795v0 0 0c-2.095-1.757-3.853-3.169-5.275-4.233-1.426-1.057-2.696-1.971-3.81-2.744v0c-0.175-0.123-0.333-0.129-0.474-0.019-0.135 0.109-0.175 0.256-0.121 0.442zM135.293 13.935l-6.198-9.62-0.706 0.403 6.198 9.621zM114.662 1.572l-6.137-9.232-0.703 0.413 6.137 9.232zM140.063 15.473v0c-0.303-0.564-0.608-1.17-0.915-1.817-0.306-0.647-0.656-1.524-1.048-2.632-0.39-1.101-0.876-2.588-1.455-4.461-0.58-1.872-1.308-4.31-2.182-7.312v0c-0.82-2.816-1.471-5.133-1.952-6.951-0.473-1.813-0.832-3.285-1.078-4.415-0.246-1.13-0.371-2.037-0.377-2.723-0.012-0.684 0.027-1.279 0.116-1.784v0c0.019-0.172-0.02-0.307-0.118-0.403-0.089-0.092-0.214-0.115-0.374-0.068v0l-8.871 2.584c-0.128 0.037-0.215 0.122-0.259 0.253-0.05 0.139-0.02 0.277 0.088 0.412v0c0.385 0.367 0.749 0.844 1.094 1.431 0.338 0.589 0.71 1.425 1.116 2.508 0.399 1.085 0.883 2.52 1.452 4.305 0.577 1.79 1.276 4.093 2.096 6.91v0l0.968 3.322 0.655-0.399-18.301-15.303c-0.133-0.1-0.264-0.131-0.391-0.094v0l-7.393 2.154c-0.128 0.037-0.218 0.122-0.269 0.255-0.043 0.138-0.01 0.274 0.098 0.409v0c0.385 0.367 0.746 0.845 1.084 1.434 0.345 0.587 0.717 1.423 1.116 2.508 0.406 1.083 0.893 2.517 1.462 4.303 0.571 1.792 1.266 4.096 2.086 6.912v0c0.865 2.97 1.554 5.418 2.067 7.345 0.513 1.927 0.898 3.488 1.156 4.684 0.264 1.194 0.411 2.137 0.439 2.83 0.035 0.691-0.007 1.311-0.125 1.859v0c-0.027 0.147 0.017 0.273 0.131 0.379 0.12 0.104 0.245 0.137 0.373 0.099v0l8.862-2.581c0.16-0.047 0.253-0.143 0.28-0.29 0.027-0.147-0.011-0.275-0.112-0.384v0c-0.362-0.408-0.724-0.911-1.085-1.507-0.361-0.596-0.751-1.469-1.168-2.617-0.424-1.147-0.938-2.671-1.541-4.572-0.602-1.901-1.336-4.336-2.201-7.306v0l-0.898-3.082-0.657 0.389 18.953 15.79c0.133 0.1 0.261 0.132 0.382 0.097v0l6.452-1.88c0.128-0.037 0.22-0.116 0.275-0.236 0.049-0.118 0.039-0.237-0.031-0.356zM139.36 15.885v0l0.235-0.589-6.452 1.88 0.392 0.094-18.949-15.78c-0.175-0.123-0.341-0.133-0.499-0.032-0.16 0.095-0.212 0.239-0.156 0.431v0l0.898 3.082c0.884 3.034 1.633 5.524 2.249 7.469 0.617 1.952 1.156 3.503 1.616 4.654 0.454 1.152 0.866 2.043 1.236 2.671 0.372 0.635 0.739 1.156 1.101 1.564v0l0.159-0.671-8.862 2.581 0.495 0.481c0.118-0.548 0.154-1.187 0.108-1.916-0.038-0.725-0.175-1.696-0.411-2.912-0.23-1.218-0.608-2.816-1.136-4.793-0.519-1.974-1.221-4.477-2.105-7.511v0c-0.839-2.88-1.554-5.238-2.143-7.073-0.584-1.837-1.096-3.298-1.538-4.385-0.437-1.095-0.83-1.942-1.178-2.542-0.342-0.602-0.71-1.102-1.104-1.501v0l-0.161 0.661 7.392-2.153-0.382-0.097 18.3 15.302c0.175 0.123 0.342 0.137 0.502 0.042 0.158-0.102 0.21-0.245 0.156-0.431v0l-0.968-3.322c-0.839-2.88-1.554-5.238-2.144-7.073-0.584-1.837-1.093-3.299-1.528-4.387-0.443-1.093-0.836-1.94-1.178-2.542-0.348-0.6-0.716-1.1-1.104-1.502v0l-0.171 0.665 8.871-2.585-0.501-0.468c-0.08 0.537-0.115 1.155-0.105 1.853 0.015 0.697 0.133 1.624 0.352 2.783 0.217 1.152 0.57 2.66 1.058 4.525 0.494 1.863 1.161 4.234 1.999 7.114v0c0.884 3.034 1.618 5.493 2.202 7.379 0.586 1.892 1.077 3.398 1.472 4.519 0.396 1.121 0.749 2.011 1.059 2.67 0.312 0.666 0.62 1.281 0.923 1.845z" opacity="1" transform="matrix(1,0,0,1,0,0)" fill="#ffffff" class="wordmark-text-0" data-fill-palette-color="primary" id="text-0"></path></svg></g></svg></g></svg></g></svg></g><g transform="matrix(1,0,0,1,160.65517163974465,0)"><svg viewBox="0 0 74.2096567205106 127.90656249227285" height="127.90656249227285" width="74.2096567205106"><g><svg xmlns="http://www.w3.org/2000/svg" xmlns:xlink="http://www.w3.org/1999/xlink" version="1.1" x="0" y="0" viewBox="21.679106830508616 1 56.85827385947762 98" enable-background="new 0 0 100 100" xml:space="preserve" height="127.90656249227285" width="74.2096567205106" class="icon-icon-0" data-fill-palette-color="accent" id="icon-0"><g fill="#000000" data-fill-palette-color="accent"><path fill-rule="evenodd" clip-rule="evenodd" d="M30.545 28.822C29.38 36.039 30.875 43.672 37.045 47.863 30.758 19.81 45.756 8.664 59.646 1 43.466 24.046 76.542 24.644 78.423 51.13 80.028 73.71 64.507 91.317 46.639 99 46.845 76.175 24.089 73.067 21.801 54.397 20.905 47.094 25.062 33.766 30.545 28.822" fill="#ffffff" data-fill-palette-color="accent"></path></g></svg></g></svg></g><g></g></svg></g><defs></defs></svg><rect width="395.5199999999999" height="263.52981989257387" fill="none" stroke="none" visibility="hidden"></rect></g></svg></g></svg>